<?xml version="1.0" encoding="UTF-8"?>
<!--Generator: Apple Native CoreSVG 175.5-->
<!DOCTYPE svg
PUBLIC "-//W3C//DTD SVG 1.1//EN"
       "http://www.w3.org/Graphics/SVG/1.1/DTD/svg11.dtd">
<svg version="1.1" xmlns="http://www.w3.org/2000/svg" xmlns:xlink="http://www.w3.org/1999/xlink" width="3300" height="2200">
 <!--glyph: "uni100BDB.medium", point size: 100.0, font version: "18.0d10e1", template writer version: "90"-->
 <g id="Notes">
  <rect height="2200" id="artboard" style="fill:white;opacity:1" width="3300" x="0" y="0"/>
  <line style="fill:none;stroke:black;opacity:1;stroke-width:0.5;" x1="263" x2="3036" y1="292" y2="292"/>
  <text style="stroke:none;fill:black;font-family:sans-serif;font-size:13;font-weight:bold;" transform="matrix(1 0 0 1 263 322)">Weight/Scale Variations</text>
  <text style="stroke:none;fill:black;font-family:sans-serif;font-size:13;text-anchor:middle;" transform="matrix(1 0 0 1 559.711 322)">Ultralight</text>
  <text style="stroke:none;fill:black;font-family:sans-serif;font-size:13;text-anchor:middle;" transform="matrix(1 0 0 1 856.422 322)">Thin</text>
  <text style="stroke:none;fill:black;font-family:sans-serif;font-size:13;text-anchor:middle;" transform="matrix(1 0 0 1 1153.13 322)">Light</text>
  <text style="stroke:none;fill:black;font-family:sans-serif;font-size:13;text-anchor:middle;" transform="matrix(1 0 0 1 1449.84 322)">Regular</text>
  <text style="stroke:none;fill:black;font-family:sans-serif;font-size:13;text-anchor:middle;" transform="matrix(1 0 0 1 1746.56 322)">Medium</text>
  <text style="stroke:none;fill:black;font-family:sans-serif;font-size:13;text-anchor:middle;" transform="matrix(1 0 0 1 2043.27 322)">Semibold</text>
  <text style="stroke:none;fill:black;font-family:sans-serif;font-size:13;text-anchor:middle;" transform="matrix(1 0 0 1 2339.98 322)">Bold</text>
  <text style="stroke:none;fill:black;font-family:sans-serif;font-size:13;text-anchor:middle;" transform="matrix(1 0 0 1 2636.69 322)">Heavy</text>
  <text style="stroke:none;fill:black;font-family:sans-serif;font-size:13;text-anchor:middle;" transform="matrix(1 0 0 1 2933.4 322)">Black</text>
  <line style="fill:none;stroke:black;opacity:1;stroke-width:0.5;" x1="263" x2="3036" y1="1903" y2="1903"/>
  <g transform="matrix(1 0 0 1 263 1933)">
   <path d="M9.24805 0.830078C13.5547 0.830078 17.1387-2.74414 17.1387-7.05078C17.1387-11.3574 13.5449-14.9316 9.23828-14.9316C4.94141-14.9316 1.36719-11.3574 1.36719-7.05078C1.36719-2.74414 4.95117 0.830078 9.24805 0.830078ZM9.24805-0.654297C5.70312-0.654297 2.87109-3.49609 2.87109-7.05078C2.87109-10.6055 5.69336-13.4473 9.23828-13.4473C12.793-13.4473 15.6445-10.6055 15.6445-7.05078C15.6445-3.49609 12.8027-0.654297 9.24805-0.654297ZM5.6543-7.05078C5.6543-6.62109 5.95703-6.32812 6.40625-6.32812L8.50586-6.32812L8.50586-4.20898C8.50586-3.76953 8.79883-3.4668 9.22852-3.4668C9.67773-3.4668 9.9707-3.76953 9.9707-4.20898L9.9707-6.32812L12.0898-6.32812C12.5293-6.32812 12.832-6.62109 12.832-7.05078C12.832-7.49023 12.5293-7.79297 12.0898-7.79297L9.9707-7.79297L9.9707-9.90234C9.9707-10.3516 9.67773-10.6543 9.22852-10.6543C8.79883-10.6543 8.50586-10.3516 8.50586-9.90234L8.50586-7.79297L6.40625-7.79297C5.95703-7.79297 5.6543-7.49023 5.6543-7.05078Z"/>
  </g>
  <g transform="matrix(1 0 0 1 281.867 1933)">
   <path d="M11.709 2.91016C17.1582 2.91016 21.6699-1.61133 21.6699-7.05078C21.6699-12.5 17.1484-17.0117 11.6992-17.0117C6.25977-17.0117 1.74805-12.5 1.74805-7.05078C1.74805-1.61133 6.26953 2.91016 11.709 2.91016ZM11.709 1.25C7.09961 1.25 3.41797-2.44141 3.41797-7.05078C3.41797-11.6602 7.08984-15.3516 11.6992-15.3516C16.3086-15.3516 20.0098-11.6602 20.0098-7.05078C20.0098-2.44141 16.3184 1.25 11.709 1.25ZM7.17773-7.05078C7.17773-6.57227 7.50977-6.25 8.00781-6.25L10.8789-6.25L10.8789-3.36914C10.8789-2.88086 11.2109-2.53906 11.6895-2.53906C12.1777-2.53906 12.5195-2.87109 12.5195-3.36914L12.5195-6.25L15.4004-6.25C15.8887-6.25 16.2305-6.57227 16.2305-7.05078C16.2305-7.53906 15.8887-7.88086 15.4004-7.88086L12.5195-7.88086L12.5195-10.752C12.5195-11.25 12.1777-11.5918 11.6895-11.5918C11.2109-11.5918 10.8789-11.25 10.8789-10.752L10.8789-7.88086L8.00781-7.88086C7.50977-7.88086 7.17773-7.53906 7.17773-7.05078Z"/>
  </g>
  <g transform="matrix(1 0 0 1 305.646 1933)">
   <path d="M14.9707 5.66406C21.9336 5.66406 27.6953-0.0976562 27.6953-7.05078C27.6953-14.0137 21.9238-19.7754 14.9609-19.7754C8.00781-19.7754 2.25586-14.0137 2.25586-7.05078C2.25586-0.0976562 8.01758 5.66406 14.9707 5.66406ZM14.9707 3.84766C8.93555 3.84766 4.08203-1.01562 4.08203-7.05078C4.08203-13.0957 8.92578-17.9492 14.9609-17.9492C21.0059-17.9492 25.8691-13.0957 25.8691-7.05078C25.8691-1.01562 21.0156 3.84766 14.9707 3.84766ZM9.19922-7.05078C9.19922-6.5332 9.57031-6.17188 10.1172-6.17188L14.0625-6.17188L14.0625-2.2168C14.0625-1.67969 14.4336-1.29883 14.9512-1.29883C15.4883-1.29883 15.8594-1.66992 15.8594-2.2168L15.8594-6.17188L19.8145-6.17188C20.3516-6.17188 20.7324-6.5332 20.7324-7.05078C20.7324-7.59766 20.3613-7.96875 19.8145-7.96875L15.8594-7.96875L15.8594-11.9141C15.8594-12.4609 15.4883-12.8418 14.9512-12.8418C14.4336-12.8418 14.0625-12.4609 14.0625-11.9141L14.0625-7.96875L10.1172-7.96875C9.57031-7.96875 9.19922-7.59766 9.19922-7.05078Z"/>
  </g>
  <text style="stroke:none;fill:black;font-family:sans-serif;font-size:13;font-weight:bold;" transform="matrix(1 0 0 1 263 1953)">Design Variations</text>
  <text style="stroke:none;fill:black;font-family:sans-serif;font-size:13;" transform="matrix(1 0 0 1 263 1971)">Symbols are supported in up to nine weights and three scales.</text>
  <text style="stroke:none;fill:black;font-family:sans-serif;font-size:13;" transform="matrix(1 0 0 1 263 1989)">For optimal layout with text and other symbols, vertically align</text>
  <text style="stroke:none;fill:black;font-family:sans-serif;font-size:13;" transform="matrix(1 0 0 1 263 2007)">symbols with the adjacent text.</text>
  <line style="fill:none;stroke:#00AEEF;stroke-width:0.5;opacity:1.0;" x1="776" x2="776" y1="1919" y2="1933"/>
  <g transform="matrix(1 0 0 1 776 1933)">
   <path d="M3.31055 0.15625C3.82812 0.15625 4.08203-0.0390625 4.26758-0.585938L5.52734-4.0332L11.2891-4.0332L12.5488-0.585938C12.7344-0.0390625 12.9883 0.15625 13.4961 0.15625C14.0137 0.15625 14.3457-0.15625 14.3457-0.644531C14.3457-0.810547 14.3164-0.966797 14.2383-1.17188L9.6582-13.3691C9.43359-13.9648 9.0332-14.2676 8.4082-14.2676C7.80273-14.2676 7.39258-13.9746 7.17773-13.3789L2.59766-1.16211C2.51953-0.957031 2.49023-0.800781 2.49023-0.634766C2.49023-0.146484 2.80273 0.15625 3.31055 0.15625ZM6.00586-5.51758L8.37891-12.0898L8.42773-12.0898L10.8008-5.51758Z"/>
  </g>
  <line style="fill:none;stroke:#00AEEF;stroke-width:0.5;opacity:1.0;" x1="793.197" x2="793.197" y1="1919" y2="1933"/>
  <text style="stroke:none;fill:black;font-family:sans-serif;font-size:13;font-weight:bold;" transform="matrix(1 0 0 1 776 1953)">Margins</text>
  <text style="stroke:none;fill:black;font-family:sans-serif;font-size:13;" transform="matrix(1 0 0 1 776 1971)">Leading and trailing margins on the left and right side of each symbol</text>
  <text style="stroke:none;fill:black;font-family:sans-serif;font-size:13;" transform="matrix(1 0 0 1 776 1989)">can be adjusted by modifying the x-location of the margin guidelines.</text>
  <text style="stroke:none;fill:black;font-family:sans-serif;font-size:13;" transform="matrix(1 0 0 1 776 2007)">Modifications are automatically applied proportionally to all</text>
  <text style="stroke:none;fill:black;font-family:sans-serif;font-size:13;" transform="matrix(1 0 0 1 776 2025)">scales and weights.</text>
  <g transform="matrix(1 0 0 1 1289 1933)">
   <path d="M2.8418 1.86523L4.54102 3.57422C5.40039 4.44336 6.38672 4.38477 7.31445 3.35938L18.0078-8.42773L17.041-9.4043L6.42578 2.27539C6.07422 2.67578 5.74219 2.77344 5.27344 2.30469L4.10156 1.14258C3.63281 0.683594 3.74023 0.341797 4.14062-0.0195312L15.6152-10.8203L14.6387-11.7871L3.04688-0.898438C2.06055 0.0195312 1.98242 0.996094 2.8418 1.86523ZM9.25781-16.3281C8.83789-15.918 8.80859-15.3418 9.04297-14.9512C9.27734-14.5898 9.73633-14.3555 10.3809-14.5215C11.8457-14.8633 13.3691-14.9219 14.7949-13.9844L14.209-12.5293C13.8672-11.6992 14.043-11.1133 14.5801-10.5664L16.875-8.25195C17.3633-7.76367 17.7734-7.74414 18.3398-7.8418L19.4043-8.03711L20.0684-7.36328L20.0293-6.80664C19.9902-6.30859 20.1172-5.92773 20.6055-5.44922L21.3672-4.70703C21.8457-4.22852 22.4609-4.19922 22.9297-4.66797L25.8398-7.58789C26.3086-8.05664 26.2891-8.65234 25.8105-9.13086L25.0391-9.89258C24.5605-10.3711 24.1895-10.5273 23.7109-10.4883L23.1348-10.4395L22.4902-11.0742L22.7344-12.1973C22.8613-12.7637 22.7051-13.2031 22.1191-13.7891L19.9219-15.9766C16.582-19.2969 12.1484-19.2188 9.25781-16.3281ZM10.752-15.957C13.1836-17.7344 16.4746-17.4316 18.7012-15.2051L21.1328-12.793C21.3672-12.5586 21.4062-12.373 21.3379-12.0312L21.0156-10.5469L22.5195-9.0625L23.5059-9.12109C23.7598-9.13086 23.8379-9.11133 24.0332-8.91602L24.6094-8.33984L22.168-5.89844L21.5918-6.47461C21.3965-6.66992 21.3672-6.74805 21.377-7.01172L21.4453-7.98828L19.9512-9.47266L18.4277-9.21875C18.1055-9.15039 17.959-9.17969 17.7148-9.41406L15.7129-11.416C15.459-11.6504 15.4297-11.8164 15.5859-12.1875L16.4648-14.2773C14.9023-15.7324 12.8711-16.3574 10.8398-15.7617C10.6836-15.7227 10.625-15.8496 10.752-15.957Z"/>
  </g>
  <text style="stroke:none;fill:black;font-family:sans-serif;font-size:13;font-weight:bold;" transform="matrix(1 0 0 1 1289 1953)">Exporting</text>
  <text style="stroke:none;fill:black;font-family:sans-serif;font-size:13;" transform="matrix(1 0 0 1 1289 1971)">Symbols should be outlined when exporting to ensure the</text>
  <text style="stroke:none;fill:black;font-family:sans-serif;font-size:13;" transform="matrix(1 0 0 1 1289 1989)">design is preserved when submitting to Xcode.</text>
  <text id="template-version" style="stroke:none;fill:black;font-family:sans-serif;font-size:13;text-anchor:end;" transform="matrix(1 0 0 1 3036 1933)">Template v.2.0</text>
  <text style="stroke:none;fill:black;font-family:sans-serif;font-size:13;text-anchor:end;" transform="matrix(1 0 0 1 3036 1951)">Requires Xcode 12 or greater</text>
  <text id="descriptive-name" style="stroke:none;fill:black;font-family:sans-serif;font-size:13;text-anchor:end;" transform="matrix(1 0 0 1 3036 1969)">Generated from clock.arrow.2.circlepath</text>
  <text style="stroke:none;fill:black;font-family:sans-serif;font-size:13;text-anchor:end;" transform="matrix(1 0 0 1 3036 1987)">Typeset at 100 points</text>
  <text style="stroke:none;fill:black;font-family:sans-serif;font-size:13;" transform="matrix(1 0 0 1 263 726)">Small</text>
  <text style="stroke:none;fill:black;font-family:sans-serif;font-size:13;" transform="matrix(1 0 0 1 263 1156)">Medium</text>
  <text style="stroke:none;fill:black;font-family:sans-serif;font-size:13;" transform="matrix(1 0 0 1 263 1586)">Large</text>
 </g>
 <g id="Guides">
  <g id="H-reference" style="fill:#27AAE1;stroke:none;" transform="matrix(1 0 0 1 339 696)">
   <path d="M0.993654 0L3.63775 0L29.3281-67.1323L30.0303-67.1323L30.0303-70.459L28.1226-70.459ZM11.6885-24.4799L46.9815-24.4799L46.2315-26.7285L12.4385-26.7285ZM55.1196 0L57.7637 0L30.6382-70.459L29.4326-70.459L29.4326-67.1323Z"/>
  </g>
  <line id="Baseline-S" style="fill:none;stroke:#27AAE1;opacity:1;stroke-width:0.5;" x1="263" x2="3036" y1="696" y2="696"/>
  <line id="Capline-S" style="fill:none;stroke:#27AAE1;opacity:1;stroke-width:0.5;" x1="263" x2="3036" y1="625.541" y2="625.541"/>
  <g id="H-reference" style="fill:#27AAE1;stroke:none;" transform="matrix(1 0 0 1 339 1126)">
   <path d="M0.993654 0L3.63775 0L29.3281-67.1323L30.0303-67.1323L30.0303-70.459L28.1226-70.459ZM11.6885-24.4799L46.9815-24.4799L46.2315-26.7285L12.4385-26.7285ZM55.1196 0L57.7637 0L30.6382-70.459L29.4326-70.459L29.4326-67.1323Z"/>
  </g>
  <line id="Baseline-M" style="fill:none;stroke:#27AAE1;opacity:1;stroke-width:0.5;" x1="263" x2="3036" y1="1126" y2="1126"/>
  <line id="Capline-M" style="fill:none;stroke:#27AAE1;opacity:1;stroke-width:0.5;" x1="263" x2="3036" y1="1055.54" y2="1055.54"/>
  <g id="H-reference" style="fill:#27AAE1;stroke:none;" transform="matrix(1 0 0 1 339 1556)">
   <path d="M0.993654 0L3.63775 0L29.3281-67.1323L30.0303-67.1323L30.0303-70.459L28.1226-70.459ZM11.6885-24.4799L46.9815-24.4799L46.2315-26.7285L12.4385-26.7285ZM55.1196 0L57.7637 0L30.6382-70.459L29.4326-70.459L29.4326-67.1323Z"/>
  </g>
  <line id="Baseline-L" style="fill:none;stroke:#27AAE1;opacity:1;stroke-width:0.5;" x1="263" x2="3036" y1="1556" y2="1556"/>
  <line id="Capline-L" style="fill:none;stroke:#27AAE1;opacity:1;stroke-width:0.5;" x1="263" x2="3036" y1="1485.54" y2="1485.54"/>
  <line id="left-margin" style="fill:none;stroke:#00AEEF;stroke-width:0.5;opacity:1.0;" x1="1381.87" x2="1381.87" y1="1030.79" y2="1150.12"/>
  <line id="right-margin" style="fill:none;stroke:#00AEEF;stroke-width:0.5;opacity:1.0;" x1="1517.82" x2="1517.82" y1="1030.79" y2="1150.12"/>
 </g>
 <g id="Symbols">
  <g id="Black-L" transform="matrix(1 0 0 1 2841 1556)">
   <path d="M90.15-70.4793C86.171-70.4793 82.9826-67.2933 82.9826-63.3727L82.9826-32.2203C82.9826-30.4855 83.638-28.7006 84.8711-27.0702L98.2634-9.42836C101.057-5.72419 105.371-5.07363 108.779-7.52865C112.046-9.94443 112.343-14.5287 109.905-17.742L90.8991-43.0887L97.2566-23.9302L97.2566-63.3727C97.2566-67.2933 94.0694-70.4793 90.15-70.4793ZM92.369-103.148C60.1911-103.148 33.0888-80.5182 26.1799-50.3528L17.4283-50.3528C11.1224-50.3528 9.6312-44.4728 12.9864-40.1169L32.2466-15.0648C34.54-12.1264 38.7638-12.1264 41.0364-15.0648L60.237-40.1365C63.5142-44.4144 62.0594-50.3528 55.8339-50.3528L47.092-50.3528C53.3907-69.3451 71.1826-82.9799 92.369-82.9799C105.789-82.9591 117.241-77.6828 126.336-68.5491C130.838-64.3221 136.923-62.9798 141.523-67.2014C145.611-70.9946 145.649-77.0131 140.849-82.3939C130.235-94.7801 110.092-103.148 92.369-103.148ZM92.369 32.7257C124.548 32.7257 151.65 10.0956 158.579-20.0698L167.311-20.0698C173.616-20.0698 175.129-25.9498 171.772-30.3057L152.513-55.3578C150.199-58.2962 145.996-58.2962 143.703-55.3578L124.501-30.2861C121.225-26.0082 122.679-20.0698 128.905-20.0698L137.668-20.0698C131.369-1.07752 113.576 12.5782 92.369 12.5782C78.9493 12.5573 67.4973 7.26024 58.4035-1.87347C53.921-6.10046 47.8145-7.44276 43.2371-3.22116C39.1269 0.571969 39.11 6.59054 43.8898 11.9713C54.5038 24.3575 74.647 32.7257 92.369 32.7257Z"/>
  </g>
  <g id="Heavy-L" transform="matrix(1 0 0 1 2545.47 1556)">
   <path d="M88.9334-70.8308C85.2848-70.8308 82.3496-67.9069 82.3496-64.3029L82.3496-32.231C82.3496-30.5828 82.9548-28.9292 84.125-27.3794L98.0523-9.03387C100.648-5.59508 104.586-5.01237 107.756-7.2732C110.76-9.48489 111.035-13.639 108.758-16.6503L89.3578-42.576L95.4613-24.1046L95.4613-64.3029C95.4613-67.9069 92.5317-70.8308 88.9334-70.8308ZM91.1932-102.22C59.3158-102.22 32.4265-79.6061 25.8143-49.6271L16.9798-49.6271C11.145-49.6271 9.74924-44.4408 12.8733-40.3193L30.8912-16.4765C33.109-13.5807 37.0156-13.5807 39.2033-16.4765L57.1709-40.3439C60.2258-44.3962 58.8389-49.6271 53.0844-49.6271L44.1878-49.6271C50.272-69.8144 68.9165-84.4475 91.1932-84.4475C105.761-84.4173 118.29-78.2723 127.535-68.0372C131.398-64.2372 136.698-63.0405 140.802-66.613C144.477-69.8486 144.667-75.2125 140.53-79.932C129.597-93.2275 109.772-102.22 91.1932-102.22ZM91.1932 31.7694C123.076 31.7694 149.965 9.15591 156.602-20.8231L165.412-20.8231C171.241-20.8231 172.673-26.0094 169.543-30.1308L151.531-53.9736C149.283-56.8695 145.406-56.8695 143.189-53.9736L125.215-30.1062C122.166-26.054 123.547-20.8231 129.307-20.8231L138.234-20.8231C132.15-0.635757 113.5 14.0275 91.1932 14.0275C76.6253 13.9973 64.0963 7.82218 54.8573-2.41294C51.019-6.21301 45.6879-7.4097 41.6201-3.83716C37.9092-0.601555 37.749 4.76233 41.862 9.48182C52.7947 22.7774 72.6203 31.7694 91.1932 31.7694Z"/>
  </g>
  <g id="Bold-L" transform="matrix(1 0 0 1 2250.22 1556)">
   <path d="M87.4198-71.1197C84.2159-71.1197 81.6255-68.5558 81.6255-65.381L81.6255-32.3581C81.6255-30.8174 82.1692-29.3402 83.2476-27.9126L97.8133-8.72104C100.126-5.66478 103.565-5.17403 106.391-7.16678C109.035-9.11002 109.279-12.6891 107.24-15.4022L87.5266-41.7669L93.1585-24.6476L93.1585-65.381C93.1585-68.5558 90.5814-71.1197 87.4198-71.1197ZM89.7333-101.052C58.2324-101.052 31.6267-78.484 25.3759-48.7429L16.3818-48.7429C11.1756-48.7429 9.90269-44.4023 12.7201-40.6101L29.3054-18.1762C31.4011-15.3788 34.8861-15.3788 36.9438-18.1762L53.4867-40.6349C56.2502-44.3731 54.9552-48.7429 49.8294-48.7429L40.5992-48.7429C46.4219-70.3983 66.1192-86.2685 89.7333-86.2685C105.73-86.2305 119.574-78.98 129.018-67.3549C132.104-64.1073 136.444-63.0949 139.918-65.8905C143.056-68.4569 143.401-72.9841 140.071-76.8889C128.806-91.2767 109.327-101.052 89.7333-101.052ZM89.7333 30.5711C121.247 30.5711 147.853 8.00298 154.129-21.7381L163.098-21.7381C168.291-21.7381 169.615-26.0787 166.785-29.8709L150.212-52.3048C148.079-55.1022 144.632-55.1022 142.536-52.3048L125.98-29.8461C123.23-26.1079 124.511-21.7381 129.65-21.7381L138.919-21.7381C133.096-0.0826956 113.385 15.8255 89.7333 15.8255C73.7364 15.7875 59.8928 8.49896 50.4622-3.12614C47.4006-6.37371 43.0225-7.38611 39.5997-4.59049C36.4106-2.02405 36.1034 2.50308 39.409 6.40794C50.6741 20.7957 70.1525 30.5711 89.7333 30.5711Z"/>
  </g>
  <g id="Semibold-L" transform="matrix(1 0 0 1 1954.52 1556)">
   <path d="M86.3764-71.3188C83.4789-71.3188 81.1263-69.0031 81.1263-66.1242L81.1263-32.4457C81.1263-30.9792 81.6275-29.6235 82.6427-28.2801L97.6486-8.50538C99.7662-5.71283 102.862-5.28548 105.45-7.09342C107.846-8.85159 108.069-12.0343 106.193-14.5418L86.2642-41.2091L91.5711-25.022L91.5711-66.1242C91.5711-69.0031 89.2369-71.3188 86.3764-71.3188ZM88.7269-100.247C57.4854-100.247 31.0753-77.7104 25.0736-48.1334L15.9695-48.1334C11.1968-48.1334 10.0085-44.3758 12.6144-40.8105L28.2122-19.348C30.2238-16.6185 33.418-16.6185 35.3862-19.348L50.9469-40.8354C53.5094-44.3572 52.2778-48.1334 47.5855-48.1334L38.1252-48.1334C43.7677-70.8008 64.1908-87.5239 88.7269-87.5239C105.709-87.4805 120.459-79.4678 130.04-66.8844C132.591-64.0178 136.269-63.1324 139.309-65.3924C142.076-67.4975 142.528-71.4478 139.754-74.7911C128.26-89.9318 109.021-100.247 88.7269-100.247ZM88.7269 29.745C119.987 29.745 146.397 7.20815 152.424-22.3688L161.503-22.3688C166.257-22.3688 167.507-26.1264 164.883-29.6917L149.303-51.1543C147.249-53.8838 144.098-53.8838 142.086-51.1543L126.507-29.6668C123.963-26.145 125.176-22.3688 129.887-22.3688L139.39-22.3688C133.748 0.298582 113.306 17.065 88.7269 17.065C71.7449 17.0216 56.995 8.96553 47.4322-3.61783C44.906-6.4845 41.185-7.36985 38.2069-5.10983C35.3774-3.00471 34.9689 0.945573 37.7179 4.28883C49.2121 19.4295 68.4511 29.745 88.7269 29.745Z"/>
  </g>
  <g id="Medium-L" transform="matrix(1 0 0 1 1658.58 1556)">
   <path d="M85.5853-71.4698C82.9202-71.4698 80.7477-69.3423 80.7477-66.6877L80.7477-32.5121C80.7477-31.1019 81.2169-29.8383 82.1841-28.5589L97.5238-8.34186C99.4933-5.74926 102.328-5.36998 104.737-7.03779C106.944-8.65563 107.151-11.5377 105.399-13.8894L85.307-40.7862L90.3674-25.3059L90.3674-66.6877C90.3674-69.3423 88.2174-71.4698 85.5853-71.4698ZM87.9638-99.637C56.9191-99.637 30.6573-77.1239 24.8445-47.6713L15.6569-47.6713C11.2128-47.6713 10.0887-44.3557 12.5343-40.9625L27.3832-20.2364C29.331-17.5584 32.3048-17.5584 34.2051-20.2364L49.0211-40.9875C51.4312-44.3452 50.2477-47.6713 45.884-47.6713L36.2493-47.6713C41.7552-71.1061 62.7286-88.4757 87.9638-88.4757C105.693-88.4283 121.13-79.8377 130.815-66.5277C132.96-63.9499 136.136-63.1609 138.847-65.0148C141.334-66.7701 141.866-70.283 139.514-73.2004C127.846-88.912 108.789-99.637 87.9638-99.637ZM87.9638 29.1187C119.031 29.1187 145.293 6.60548 151.131-22.8471L160.293-22.8471C164.715-22.8471 165.909-26.1627 163.441-29.5559L148.614-50.2819C146.619-52.96 143.693-52.96 141.745-50.2819L126.906-29.5309C124.519-26.1732 125.68-22.8471 130.066-22.8471L139.748-22.8471C134.242 0.587682 113.246 18.0048 87.9638 18.0048C70.2348 17.9574 54.7978 9.31931 45.1348-3.99064C43.0146-6.5685 39.7918-7.35752 37.1508-5.50362C34.594-3.74829 34.1087-0.235396 36.4357 2.68203C48.1036 18.3936 67.1611 29.1187 87.9638 29.1187Z"/>
  </g>
  <g id="Regular-L" transform="matrix(1 0 0 1 1362.86 1556)">
   <path d="M84.5533-71.6668C82.1913-71.6668 80.254-69.7848 80.254-67.4228L80.254-32.5988C80.254-31.2619 80.6812-30.1185 81.5858-28.9224L97.3609-8.12857C99.1374-5.79679 101.633-5.48021 103.806-6.96523C105.768-8.40004 105.954-10.8901 104.364-13.0385L84.0584-40.2345L88.7973-25.6762L88.7973-67.4228C88.7973-69.7848 86.8876-71.6668 84.5533-71.6668ZM86.9685-98.8411C56.1804-98.8411 30.112-76.3588 24.5455-47.0685L15.2492-47.0685C11.2337-47.0685 10.1933-44.3295 12.4298-41.1608L26.302-21.3953C28.1666-18.7844 30.8528-18.7844 32.6646-21.3953L46.5092-41.1859C48.7205-44.3295 47.5998-47.0685 43.6647-47.0685L33.8024-47.0685C39.1302-71.5042 60.8214-89.7173 86.9685-89.7173C105.672-89.6646 122.005-80.3202 131.826-66.0625C133.442-63.8613 135.962-63.198 138.244-64.5222C140.365-65.8212 141.003-68.7636 139.201-71.1256C127.307-87.5819 108.486-98.8411 86.9685-98.8411ZM86.9685 28.3017C117.784 28.3017 143.853 5.81938 149.444-23.4709L158.715-23.4709C162.703-23.4709 163.824-26.2099 161.56-29.3786L147.715-49.1441C145.798-51.755 143.165-51.755 141.3-49.1441L127.428-29.3535C125.244-26.2099 126.337-23.4709 130.3-23.4709L140.215-23.4709C134.887 0.96477 113.168 19.2307 86.9685 19.2307C68.2651 19.1779 51.9318 9.78075 42.1381-4.47692C40.5475-6.67807 37.9745-7.34143 35.7733-6.01725C33.5722-4.71818 32.9867-1.77579 34.7632 0.5862C46.6577 17.0425 65.4785 28.3017 86.9685 28.3017Z"/>
  </g>
  <g id="Light-L" transform="matrix(1 0 0 1 1067.17 1556)">
   <path d="M83.4654-70.9224C81.6378-70.9224 80.1395-69.5176 80.1395-67.69L80.1395-33.4194C80.1395-32.1589 80.5285-31.2255 81.2804-30.2584L97.3418-9.04466C98.6793-7.32361 100.621-7.12154 102.241-8.24394C103.726-9.39247 103.874-11.2146 102.684-12.8476L83.295-38.555L86.6979-28.1573L86.6979-67.69C86.6979-69.5176 85.2463-70.9224 83.4654-70.9224ZM85.9378-97.925C55.436-97.925 29.6921-75.6335 24.3356-46.5532L14.5621-46.5532C11.2719-46.5532 10.346-44.3104 12.2389-41.6188L25.8058-22.2541C27.4032-20.0059 29.6123-20.0059 31.176-22.2541L44.6961-41.6057C46.6021-44.3104 45.5958-46.5532 42.386-46.5532L31.3786-46.5532C36.5537-71.9241 58.951-90.996 85.9378-90.996C105.672-90.9624 122.788-80.6637 132.838-65.28C134.015-63.6132 135.943-63.1025 137.691-64.0641C139.277-65.0387 139.801-67.2368 138.476-69.0644C126.753-86.0551 107.875-97.925 85.9378-97.925ZM85.9378 27.3856C116.486 27.3856 142.23 5.09414 147.574-23.9862L157.36-23.9862C160.604-23.9862 161.61-26.229 159.67-28.9206L146.15-48.2853C144.519-50.5335 142.344-50.5335 140.746-48.2853L127.18-28.9337C125.32-26.229 126.28-23.9862 129.536-23.9862L140.578-23.9862C135.402 1.38465 112.958 20.4903 85.9378 20.4903C66.2039 20.4566 49.0881 10.1243 39.0844-5.25941C37.8947-6.92618 35.9324-7.43686 34.2656-6.4753C32.5988-5.50067 32.1088-3.30261 33.4463-1.47501C45.169 15.5156 64.0471 27.3856 85.9378 27.3856Z"/>
  </g>
  <g id="Thin-L" transform="matrix(1 0 0 1 771.811 1556)">
   <path d="M82.0267-69.938C80.9058-69.938 79.988-69.1642 79.988-68.0433L79.988-34.5048C79.988-33.3452 80.3266-32.6895 80.8766-32.0253L97.3165-10.2563C98.0735-9.34295 99.2832-9.29234 100.171-9.93514C101.025-10.705 101.123-11.6437 100.463-12.5952L82.2853-36.3338L83.9213-31.4387L83.9213-68.0433C83.9213-69.1642 83.0755-69.938 82.0267-69.938ZM84.5748-96.7134C54.4516-96.7134 29.1368-74.6744 24.0579-45.8716L13.6534-45.8716C11.3223-45.8716 10.5479-44.2852 11.9865-42.2246L25.1495-23.39C26.3935-21.6213 27.9715-21.6213 29.2071-23.39L42.2981-42.1611C43.8002-44.2852 42.9454-45.8716 40.6948-45.8716L28.1729-45.8716C33.146-72.4794 56.4773-92.6872 84.5748-92.6872C105.672-92.6788 123.822-81.118 134.176-64.2451C134.772-63.2851 135.918-62.9763 136.959-63.4583C137.838-64.0038 138.21-65.2174 137.517-66.3383C126.021-84.0357 107.068-96.7134 84.5748-96.7134ZM84.5748 26.174C114.77 26.174 140.085 4.13495 145.1-24.6678L155.568-24.6678C157.827-24.6678 158.682-26.2542 157.172-28.3148L144.08-47.1494C142.828-48.9181 141.258-48.9181 140.014-47.1494L126.851-28.3783C125.421-26.2542 126.204-24.6678 128.527-24.6678L141.057-24.6678C136.084 1.93997 112.681 22.1563 84.5748 22.1563C63.4778 22.1478 45.3271 10.5786 35.0457-6.29433C34.3861-7.25432 33.2315-7.56307 32.2715-7.0811C31.3115-6.53559 30.9476-5.32196 31.7046-4.20113C43.2002 13.4963 62.154 26.174 84.5748 26.174Z"/>
  </g>
  <g id="Ultralight-L" transform="matrix(1 0 0 1 475.792 1556)">
   <path d="M81.2897-69.4338C80.5309-69.4338 79.9104-68.9832 79.9104-68.2243L79.9104-35.0608C79.9104-33.9529 80.2231-33.4394 80.6697-32.9303L97.3036-10.8768C97.7632-10.3773 98.598-10.4042 99.1111-10.8014C99.6421-11.3773 99.7135-11.8635 99.3254-12.4659L81.7682-35.196L82.4992-33.1195L82.4992-68.2243C82.4992-68.9832 81.9636-69.4338 81.2897-69.4338ZM83.8766-96.0928C53.9474-96.0928 28.8523-74.1831 23.9157-45.5226L13.188-45.5226C11.3482-45.5226 10.6514-44.2722 11.8572-42.5349L24.8134-23.9718C25.8764-22.4488 27.1312-22.4488 28.1987-23.9718L41.0699-42.4455C42.3651-44.2722 41.5879-45.5226 39.8285-45.5226L26.531-45.5226C31.4006-72.7638 55.2103-93.5535 83.8766-93.5535C105.672-93.558 124.353-81.3508 134.861-63.715C135.16-63.117 135.905-62.9117 136.584-63.148C137.101-63.4737 137.396-64.1831 137.026-64.942C125.646-83.0014 106.654-96.0928 83.8766-96.0928ZM83.8766 25.5534C113.891 25.5534 138.986 3.64366 143.833-25.0168L154.65-25.0168C156.405-25.0168 157.182-26.2672 155.892-28.0045L143.02-46.5676C141.962-48.0906 140.703-48.0906 139.64-46.5676L126.683-28.0939C125.473-26.2672 126.165-25.0168 128.01-25.0168L141.303-25.0168C136.433 2.2244 112.538 23.0096 83.8766 23.0096C62.0815 23.0141 43.4007 10.8114 32.9771-6.82441C32.589-7.42239 31.8481-7.62771 31.2501-7.39139C30.6521-7.06567 30.3529-6.35626 30.8125-5.59743C42.1917 12.462 61.1843 25.5534 83.8766 25.5534Z"/>
  </g>
  <g id="Black-M" transform="matrix(1 0 0 1 2860.94 1126)">
   <path d="M70.7412-62.136C67.4469-62.136 64.8186-59.5071 64.8186-56.27L64.8186-33.0001C64.8186-31.592 65.3643-30.1248 66.353-28.8234L76.3077-15.7034C78.583-12.6883 82.1735-12.1415 84.9437-14.1613C87.6349-16.1695 87.8795-20.0004 85.9058-22.5936L71.6445-41.5315L76.6072-26.6617L76.6072-56.27C76.6072-59.5071 73.9786-62.136 70.7412-62.136ZM72.433-88.5231C47.2839-88.5231 26.1476-71.0023 20.5685-47.5001L13.7948-47.5001C8.60269-47.5001 7.38094-42.4155 10.1325-38.904L26.0804-18.5101C27.886-16.2462 31.3663-16.2462 33.1664-18.5101L49.0576-38.9098C51.7462-42.3585 50.5763-47.5001 45.4466-47.5001L38.6517-47.5001C43.6952-61.3138 56.8423-71.1358 72.433-71.1358C81.9826-71.1303 90.0353-67.6598 96.9842-61.3775C100.962-57.8082 106.271-56.6638 110.188-60.4432C113.638-63.817 113.521-68.9417 109.298-73.6063C101.372-82.4933 85.4857-88.5231 72.433-88.5231ZM72.433 18.116C97.5818 18.116 118.718 0.595164 124.303-22.907L131.071-22.907C136.263-22.907 137.49-27.9915 134.739-31.5031L118.791-51.8969C116.98-54.1609 113.505-54.1609 111.699-51.8969L95.8084-31.4973C93.1195-28.0486 94.2897-22.907 99.4191-22.907L106.219-22.907C101.176-9.0933 88.0292 0.73415 72.433 0.73415C62.8834 0.728659 54.8307-2.74732 47.8816-9.02957C43.9095-12.5989 38.5949-13.7433 34.683-9.96394C31.2279-6.59005 31.3509-1.46541 35.5675 3.19916C43.4936 12.0862 59.38 18.116 72.433 18.116Z"/>
  </g>
  <g id="Heavy-M" transform="matrix(1 0 0 1 2565.29 1126)">
   <path d="M69.6522-62.5483C66.6317-62.5483 64.2104-60.1316 64.2104-57.1547L64.2104-32.9349C64.2104-31.6044 64.7105-30.2462 65.6519-29.0024L76.103-15.2333C78.2252-12.4213 81.499-11.9302 84.0873-13.7936C86.5663-15.6287 86.7923-19.1007 84.9397-21.544L70.2083-41.1852L75.0459-26.6033L75.0459-57.1547C75.0459-60.1316 72.6269-62.5483 69.6522-62.5483ZM71.3786-87.6997C46.497-87.6997 25.5389-70.1775 20.2304-46.8381L13.4197-46.8381C8.62128-46.8381 7.48224-42.386 10.0395-39.0597L24.8012-19.811C26.5575-17.5552 29.7718-17.5552 31.5117-19.811L46.2275-39.0738C48.727-42.3424 47.6129-46.8381 42.8768-46.8381L36.0363-46.8381C40.8842-61.7339 54.7995-72.4524 71.3786-72.4524C81.9556-72.436 90.989-68.2044 98.0629-60.9493C101.456-57.748 106.053-56.7319 109.535-59.9102C112.63-62.769 112.672-67.3223 109.053-71.3898C100.799-81.1164 85.2287-87.6997 71.3786-87.6997ZM71.3786 17.2657C96.2626 17.2657 117.221-0.256582 122.543-23.5959L129.34-23.5959C134.136-23.5959 135.294-28.048 132.734-31.3744L117.975-50.6231C116.202-52.8789 113.004-52.8789 111.248-50.6231L96.5298-31.3602C94.0325-28.0916 95.1444-23.5959 99.8828-23.5959L106.74-23.5959C101.892-8.70019 87.9741 2.03478 71.3786 2.03478C60.8017 2.01837 51.7683-2.22968 44.6967-9.48475C41.3173-12.686 36.7044-13.7022 33.2414-10.5239C30.1273-7.66507 30.1014-3.11175 33.7067 0.955706C41.9601 10.6824 57.5309 17.2657 71.3786 17.2657Z"/>
  </g>
  <g id="Bold-M" transform="matrix(1 0 0 1 2269.76 1126)">
   <path d="M68.4341-63.0096C65.7197-63.0096 63.53-60.8301 63.53-58.1443L63.53-32.8619C63.53-31.6182 63.9792-30.3819 64.8675-29.2026L75.8741-14.7073C77.825-12.1225 80.7444-11.6938 83.1292-13.3823C85.3709-15.0238 85.5761-18.0941 83.859-20.3698L68.6016-40.7978L73.2993-26.538L73.2993-58.1443C73.2993-60.8301 71.1147-63.0096 68.4341-63.0096ZM70.1992-86.7786C45.6167-86.7786 24.8579-69.2548 19.8523-46.0977L13.0002-46.0977C8.64207-46.0977 7.59556-42.353 9.93554-39.2338L23.3702-21.2662C25.0714-19.0195 27.9881-19.0195 29.6607-21.2662L43.0617-39.2573C45.3496-42.3245 44.2979-46.0977 40.0021-46.0977L33.1105-46.0977C37.7396-62.2038 52.5145-73.9253 70.1992-73.9253C81.9255-73.8967 92.0559-68.8136 99.2696-60.4703C102.009-57.6807 105.809-56.808 108.803-59.314C111.502-61.5966 111.723-65.5108 108.778-68.9103C100.159-79.5762 84.9412-86.7786 70.1992-86.7786ZM70.1992 16.3144C94.7869 16.3144 115.546-1.20938 120.575-24.3665L127.403-24.3665C131.756-24.3665 132.837-28.1112 130.491-31.2304L117.062-49.198C115.332-51.4447 112.444-51.4447 110.743-49.198L97.3367-31.2069C95.0539-28.1397 96.1005-24.3665 100.401-24.3665L107.322-24.3665C102.693-8.26042 87.9125 3.48972 70.1992 3.48972C58.4729 3.4611 48.3425-1.65062 41.1339-9.99392C38.4176-12.7835 34.5895-13.6562 31.6287-11.1502C28.8962-8.86762 28.7037-4.95343 31.6252-1.55392C40.2448 9.112 55.4623 16.3144 70.1992 16.3144Z"/>
  </g>
  <g id="Semibold-M" transform="matrix(1 0 0 1 1973.87 1126)">
   <path d="M67.5943-63.3276C65.091-63.3276 63.0609-61.3117 63.0609-58.8266L63.0609-32.8116C63.0609-31.6278 63.475-30.4755 64.3268-29.3407L75.7162-14.3448C77.549-11.9165 80.2243-11.5309 82.4687-13.0987C84.5469-14.6067 84.7377-17.4003 83.1139-19.5603L67.4939-40.5308L72.0952-26.493L72.0952-58.8266C72.0952-61.3117 70.0723-63.3276 67.5943-63.3276ZM69.3861-86.1436C45.0098-86.1436 24.3885-68.6187 19.5916-45.5872L12.711-45.5872C8.65641-45.5872 7.67369-42.3303 9.86387-39.3539L22.3837-22.2693C24.0469-20.0289 26.7584-20.0289 28.3846-22.2693L40.8792-39.3838C43.0213-42.3121 42.0126-45.5872 38.0202-45.5872L31.0936-45.5872C35.5718-62.5277 50.9392-74.9407 69.3861-74.9407C81.9047-74.9036 92.7914-69.2336 100.102-60.14C102.391-57.6343 105.641-56.8605 108.299-58.9029C110.725-60.7883 111.069-64.2619 108.589-67.2009C99.7171-78.5144 84.743-86.1436 69.3861-86.1436ZM69.3861 15.6586C93.7695 15.6586 114.391-1.86624 119.218-24.8978L126.068-24.8978C130.116-24.8978 131.143-28.1547 128.945-31.1311L116.433-48.2156C114.732-50.456 112.058-50.456 110.395-48.2156L97.893-31.1011C95.758-28.1729 96.7596-24.8978 100.759-24.8978L107.723-24.8978C103.245-7.95726 87.8701 4.49275 69.3861 4.49275C56.8675 4.45571 45.9808-1.25143 38.6778-10.3449C36.4185-12.8507 33.1316-13.6245 30.5169-11.582C28.0474-9.69666 27.7401-6.22307 30.1902-3.28404C39.0622 8.02941 54.0363 15.6586 69.3861 15.6586Z"/>
  </g>
  <g id="Medium-M" transform="matrix(1 0 0 1 1677.78 1126)">
   <path d="M66.9575-63.5687C64.6143-63.5687 62.7053-61.6769 62.7053-59.3439L62.7053-32.7735C62.7053-31.635 63.0927-30.5465 63.9168-29.4453L75.5965-14.0698C77.3398-11.7604 79.8299-11.4073 81.9679-12.8837C83.922-14.2905 84.102-16.8741 82.549-18.9465L66.6541-40.3283L71.1822-26.4588L71.1822-59.3439C71.1822-61.6769 69.2818-63.5687 66.9575-63.5687ZM68.7696-85.6621C44.5496-85.6621 24.0325-68.1364 19.3939-45.2002L12.4917-45.2002C8.66728-45.2002 7.73292-42.313 9.80952-39.4449L21.6357-23.03C23.2701-20.7944 25.826-20.7944 27.417-23.03L39.2243-39.4798C41.2558-42.3028 40.2797-45.2002 36.5176-45.2002L29.5642-45.2002C33.928-62.7734 49.7447-75.7106 68.7696-75.7106C81.8889-75.6672 93.3491-69.552 100.732-59.8896C102.68-57.5991 105.513-56.9003 107.917-58.5913C110.135-60.1755 110.573-63.315 108.446-65.9048C99.3822-77.7093 84.5928-85.6621 68.7696-85.6621ZM68.7696 15.1614C92.9981 15.1614 113.515-2.36429 118.189-25.3006L125.056-25.3006C128.872-25.3006 129.858-28.1877 127.773-31.0558L115.955-47.4707C114.278-49.7064 111.765-49.7064 110.131-47.4707L98.3148-31.021C96.2919-28.198 97.2594-25.3006 101.03-25.3006L108.027-25.3006C103.663-7.72738 87.8379 5.25329 68.7696 5.25329C55.6502 5.20986 44.19-0.948738 36.8154-10.6111C34.9027-12.9017 32.0261-13.6004 29.6739-11.9095C27.4039-10.3253 27.0095-7.18576 29.1021-4.59589C38.1655 7.20855 52.955 15.1614 68.7696 15.1614Z"/>
  </g>
  <g id="Regular-M" transform="matrix(1 0 0 1 1381.87 1126)">
   <path d="M66.1269-63.8831C63.9925-63.8831 62.2414-62.1532 62.2414-60.0187L62.2414-32.7237C62.2414-31.6444 62.5941-30.639 63.382-29.5818L75.4404-13.7112C77.0669-11.5567 79.3154-11.2462 81.3147-12.6033C83.107-13.878 83.2728-16.1879 81.8121-18.146L65.5586-40.0642L69.9913-26.4143L69.9913-60.0187C69.9913-62.1532 68.2508-63.8831 66.1269-63.8831ZM67.9654-85.0341C43.9494-85.0341 23.5683-67.5074 19.1361-44.6953L12.2057-44.6953C8.68145-44.6953 7.81019-42.2905 9.73863-39.5637L20.66-24.0222C22.2569-21.7927 24.6099-21.7927 26.1549-24.0222L37.0658-39.6049C38.9531-42.2905 38.0195-44.6953 34.5575-44.6953L27.5694-44.6953C31.784-63.0937 48.1867-76.7148 67.9654-76.7148C81.8684-76.6631 94.0765-69.9674 101.555-59.563C103.057-57.5532 105.347-56.9522 107.419-58.1848C109.366-59.3761 109.926-62.0798 108.258-64.2143C98.9454-76.6591 84.3967-85.0341 67.9654-85.0341ZM67.9654 14.5128C91.9919 14.5128 112.373-3.01393 116.846-25.826L123.736-25.826C127.249-25.826 128.183-28.2308 126.244-30.9576L115.333-46.4991C113.684-48.7285 111.383-48.7285 109.786-46.4991L98.865-30.9164C96.9883-28.2308 97.9113-25.826 101.384-25.826L108.424-25.826C104.209-7.42755 87.7959 6.24529 67.9654 6.24529C54.0624 6.19354 41.8543-0.553929 34.3862-10.9583C32.9256-12.9681 30.5841-13.5691 28.5743-12.3365C26.5644-11.1452 26.0564-8.44145 27.6829-6.30699C36.996 6.13785 51.5446 14.5128 67.9654 14.5128Z"/>
  </g>
  <g id="Light-M" transform="matrix(1 0 0 1 1086.08 1126)">
   <path d="M65.1516-63.2158C63.4962-63.2158 62.1387-61.9136 62.1387-60.2583L62.1387-33.4595C62.1387-32.4486 62.4572-31.6314 63.1082-30.7796L75.4233-14.5326C76.6562-12.9256 78.4085-12.7177 79.9116-13.7497C81.2761-14.7678 81.4077-16.4787 80.3064-17.9748L64.8742-38.5584L68.1091-28.6387L68.1091-60.2583C68.1091-61.9136 66.7793-63.2158 65.1516-63.2158ZM67.0414-84.2128C43.2821-84.2128 23.1918-66.8571 18.9479-44.2333L11.5897-44.2333C8.71568-44.2333 7.94708-42.2734 9.56752-39.9743L20.2152-24.7922C21.5724-22.8878 23.4977-22.8878 24.8203-24.7922L35.4403-39.9813C37.0537-42.2734 36.2228-44.2333 33.4111-44.2333L25.3963-44.2333C29.474-63.4702 46.5098-77.8613 67.0414-77.8613C81.8684-77.8266 94.7781-70.2754 102.462-58.8615C103.57-57.3307 105.33-56.8667 106.923-57.7741C108.391-58.6746 108.848-60.711 107.608-62.3663C98.4492-75.2903 83.8492-84.2128 67.0414-84.2128ZM67.0414 13.6915C90.8284 13.6915 110.919-3.66414 115.17-26.288L122.521-26.288C125.367-26.288 126.198-28.2479 124.55-30.547L113.93-45.7291C112.538-47.6334 110.647-47.6334 109.29-45.7291L98.6425-30.54C97.0567-28.2479 97.86-26.288 100.699-26.288L108.749-26.288C104.671-7.0511 87.6076 7.37462 67.0414 7.37462C52.2145 7.33997 39.3047-0.245932 31.6485-11.6598C30.5472-13.1906 28.7533-13.6546 27.2225-12.7472C25.6918-11.8467 25.2693-9.81032 26.5023-8.15497C35.6613 4.76898 50.2613 13.6915 67.0414 13.6915Z"/>
  </g>
  <g id="Thin-M" transform="matrix(1 0 0 1 790.578 1126)">
   <path d="M63.8616-62.3332C62.84-62.3332 62.0029-61.5968 62.0029-60.5751L62.0029-34.4326C62.0029-33.5123 62.2762-32.944 62.7461-32.3637L75.4007-15.6188C76.1131-14.736 77.2091-14.6639 78.0559-15.266C78.8546-15.9446 78.941-16.8635 78.3149-17.7485L63.969-36.5669L65.6198-31.5807L65.6198-60.5751C65.6198-61.5968 64.833-62.3332 63.8616-62.3332ZM65.8194-83.1265C42.3995-83.1265 22.694-65.9972 18.6989-43.6223L10.775-43.6223C8.76094-43.6223 8.12812-42.2508 9.34121-40.5175L19.6268-25.8105C20.6672-24.3362 22.0267-24.3362 23.0551-25.8105L33.2904-40.4792C34.5417-42.2508 33.8466-43.6223 31.8949-43.6223L22.5222-43.6223C26.4189-63.9681 44.292-79.3775 65.8194-79.3775C81.8684-79.3655 95.7059-70.6827 103.661-57.9336C104.249-57.0365 105.307-56.7535 106.266-57.231C107.101-57.7467 107.422-58.9005 106.748-59.9222C97.7929-73.4798 83.125-83.1265 65.8194-83.1265ZM65.8194 12.6052C89.2895 12.6052 108.995-4.52411 112.952-26.899L120.914-26.899C122.878-26.899 123.573-28.2705 122.31-30.0038L112.074-44.7108C111.022-46.1851 109.674-46.1851 108.634-44.7108L98.3483-30.0421C97.1473-28.2705 97.7921-26.899 99.7942-26.899L109.179-26.899C105.282-6.55323 87.3587 8.86824 65.8194 8.86824C49.7704 8.85622 35.9328 0.161419 28.0276-12.5877C27.4015-13.4848 26.3318-13.7678 25.4347-13.2903C24.5376-12.7746 24.2283-11.6208 24.9408-10.5991C33.8961 2.95853 48.564 12.6052 65.8194 12.6052Z"/>
  </g>
  <g id="Ultralight-M" transform="matrix(1 0 0 1 494.487 1126)">
   <path d="M63.2009-61.8812C62.5038-61.8812 61.9334-61.4345 61.9334-60.7374L61.9334-34.931C61.9334-34.0571 62.1834-33.6163 62.5606-33.1751L75.3891-16.1752C75.8349-15.6633 76.5948-15.6608 77.1054-16.0426C77.6144-16.5474 77.6775-17.0605 77.2948-17.6326L63.5053-35.5469L64.3447-33.0876L64.3447-60.7374C64.3447-61.4345 63.8362-61.8812 63.2009-61.8812ZM65.1934-82.5701C41.9475-82.5701 22.4389-65.5567 18.5714-43.3093L10.3577-43.3093C8.78412-43.3093 8.22085-42.2392 9.2253-40.7957L19.3254-26.3321C20.2036-25.078 21.2733-25.078 22.151-26.3321L32.1892-40.7342C33.2551-42.2392 32.6295-43.3093 31.1182-43.3093L21.0501-43.3093C24.8541-64.2231 43.1561-80.1541 65.1934-80.1541C81.8684-80.1537 96.1812-70.8914 104.276-57.4584C104.597-56.8858 105.295-56.6956 105.93-56.9528C106.44-57.2715 106.692-57.9732 106.308-58.6704C97.4567-72.5525 82.7541-82.5701 65.1934-82.5701ZM65.1934 12.0488C88.5013 12.0488 108.01-4.96457 111.816-27.212L120.091-27.212C121.603-27.212 122.228-28.2821 121.162-29.7256L111.124-44.1892C110.245-45.4432 109.176-45.4432 108.298-44.1892L98.1977-29.7871C97.1936-28.2821 97.7573-27.212 99.3305-27.212L109.399-27.212C105.595-6.29822 87.2312 9.63326 65.1934 9.63326C48.5185 9.63284 34.2057 0.370062 26.173-13.0629C25.7903-13.6354 25.0915-13.8257 24.519-13.5685C23.9465-13.2498 23.6951-12.5481 24.141-11.8509C32.992 2.03123 47.6946 12.0488 65.1934 12.0488Z"/>
  </g>
  <g id="Black-S" transform="matrix(1 0 0 1 2876.34 696)">
   <path d="M55.7129-56.1523C53.0762-56.1523 50.9766-54.0527 50.9766-51.4648L50.9766-33.5449C50.9766-32.4219 51.416-31.25 52.1973-30.2246L59.8633-20.1172C61.6699-17.7246 64.5508-17.2852 66.748-18.8965C68.8965-20.5078 69.0918-23.584 67.5293-25.6348L56.543-40.1855L60.4004-28.6621L60.4004-51.4648C60.4004-54.0527 58.3008-56.1523 55.7129-56.1523ZM57.0312-77.1973C37.2559-77.1973 20.6543-63.4766 16.2109-45.0195L10.8887-45.0195C6.73828-45.0195 5.76172-40.8691 7.95898-38.0859L20.8008-21.7773C22.2168-20.0195 25-20.0195 26.416-21.7773L39.209-38.0859C41.3574-40.8203 40.4297-45.0195 36.3281-45.0195L30.957-45.0195C34.9609-55.5664 45.0684-63.0371 57.0312-63.0371C64.2578-63.0371 70.3125-60.498 75.7324-55.8105C79.0039-52.9297 83.3496-52.002 86.5234-55.127C89.3066-57.9102 89.1602-62.0605 85.6934-65.8691C79.5898-72.6074 67.041-77.1973 57.0312-77.1973ZM57.0312 6.78711C76.8066 6.78711 93.4082-6.93359 97.8516-25.3906L103.174-25.3906C107.324-25.3906 108.301-29.541 106.104-32.3242L93.2617-48.6328C91.8457-50.3906 89.0625-50.3906 87.6465-48.6328L74.8535-32.3242C72.7051-29.5898 73.6328-25.3906 77.7344-25.3906L83.1055-25.3906C79.1016-14.8438 68.9941-7.37305 57.0312-7.37305C49.8047-7.37305 43.75-9.91211 38.3301-14.5996C35.0586-17.4805 30.7129-18.4082 27.5391-15.2832C24.7559-12.5 24.9023-8.34961 28.3691-4.54102C34.4727 2.19727 47.0215 6.78711 57.0312 6.78711Z"/>
  </g>
  <g id="Heavy-S" transform="matrix(1 0 0 1 2580.42 696)">
   <path d="M54.9062-56.5903C52.4423-56.5903 50.4695-54.6174 50.4695-52.1909L50.4695-33.3951C50.4695-32.3297 50.8744-31.227 51.6326-30.2246L59.6904-19.6101C61.4164-17.3213 64.0898-16.9164 66.1949-18.4355C68.2165-19.9316 68.4003-22.7773 66.8955-24.7589L55.402-40.0818L59.3056-28.3279L59.3056-52.1909C59.3056-54.6174 57.3327-56.5903 54.9062-56.5903ZM56.2476-76.598C36.6681-76.598 20.1818-62.8542 15.9459-44.5125L10.6467-44.5125C6.74981-44.5125 5.83087-40.8461 7.90136-38.1666L19.7636-22.7915C21.1681-20.9991 23.7784-20.9991 25.1714-22.7915L36.9963-38.1781C39.018-40.8088 38.1248-44.5125 34.2768-44.5125L28.9979-44.5125C32.852-55.8776 43.5356-64.0167 56.2476-64.0167C64.2348-64.0052 71.0385-60.9245 76.5391-55.534C79.3612-52.9066 83.1652-52.0711 86.0279-54.7236C88.5691-57.1034 88.5724-60.8505 85.5666-64.2096C79.1634-71.6048 66.8912-76.598 56.2476-76.598ZM56.2476 6.16479C75.8271 6.16479 92.3134-7.57896 96.5608-25.9208L101.849-25.9208C105.745-25.9208 106.676-29.5871 104.605-32.2666L92.7431-47.6417C91.3271-49.4341 88.7283-49.4341 87.3238-47.6417L75.4989-32.2551C73.4772-29.6244 74.3704-25.9208 78.2184-25.9208L83.5088-25.9208C79.6547-14.5556 68.9711-6.40499 56.2476-6.40499C48.2604-6.41652 41.4566-9.50875 35.956-14.8992C33.1455-17.5266 29.33-18.3621 26.4788-15.7096C23.9261-13.3298 23.9343-9.58273 26.9286-6.22359C33.3317 1.17159 45.604 6.16479 56.2476 6.16479Z"/>
  </g>
  <g id="Bold-S" transform="matrix(1 0 0 1 2284.59 696)">
   <path d="M54.0039-57.0801C51.7334-57.0801 49.9023-55.249 49.9023-53.0029L49.9023-33.2275C49.9023-32.2266 50.2686-31.2012 51.001-30.2246L59.4971-19.043C61.1328-16.8701 63.5742-16.5039 65.5762-17.9199C67.4561-19.2871 67.627-21.875 66.1865-23.7793L54.126-39.9658L58.0811-27.9541L58.0811-53.0029C58.0811-55.249 56.25-57.0801 54.0039-57.0801ZM55.3711-75.9277C36.0107-75.9277 19.6533-62.1582 15.6494-43.9453L10.376-43.9453C6.7627-43.9453 5.9082-40.8203 7.83691-38.2568L18.6035-23.9258C19.9951-22.0947 22.4121-22.0947 23.7793-23.9258L34.5215-38.2812C36.4014-40.7959 35.5469-43.9453 31.9824-43.9453L26.8066-43.9453C30.4932-56.2256 41.8213-65.1123 55.3711-65.1123C64.209-65.0879 71.8506-61.4014 77.4414-55.2246C79.7607-52.8809 82.959-52.1484 85.4736-54.2725C87.7441-56.2012 87.915-59.4971 85.4248-62.3535C78.6865-70.4834 66.7236-75.9277 55.3711-75.9277ZM55.3711 5.46875C74.7314 5.46875 91.0889-8.30078 95.1172-26.5137L100.366-26.5137C103.979-26.5137 104.858-29.6387 102.93-32.2021L92.1631-46.5332C90.7471-48.3643 88.3545-48.3643 86.9629-46.5332L76.2207-32.1777C74.3408-29.6631 75.1953-26.5137 78.7598-26.5137L83.96-26.5137C80.2734-14.2334 68.9453-5.32227 55.3711-5.32227C46.5332-5.34668 38.8916-9.05762 33.3008-15.2344C31.0059-17.5781 27.7832-18.3105 25.293-16.1865C22.998-14.2578 22.8516-10.9619 25.3174-8.10547C32.0557 0.0244141 44.0186 5.46875 55.3711 5.46875Z"/>
  </g>
  <g id="Semibold-S" transform="matrix(1 0 0 1 1988.49 696)">
   <path d="M53.3818-57.4178C51.2446-57.4178 49.5113-55.6845 49.5113-53.5628L49.5113-33.112C49.5113-32.1555 49.8509-31.1834 50.5655-30.2246L59.3638-18.652C60.9373-16.5591 63.2188-16.2195 65.1496-17.5645C66.9317-18.8428 67.0938-21.2529 65.6978-23.1039L53.2462-39.8858L57.2368-27.6964L57.2368-53.5628C57.2368-55.6845 55.5035-57.4178 53.3818-57.4178ZM54.7668-75.4656C35.5575-75.4656 19.289-61.6783 15.445-43.5543L10.1894-43.5543C6.77158-43.5543 5.96152-40.8025 7.79248-38.319L17.8037-24.7078C19.1864-22.8501 21.4701-22.8501 22.8195-24.7078L32.8152-38.3523C34.5974-40.787 33.7695-43.5543 30.4006-43.5543L25.2959-43.5543C28.8669-56.4655 40.6394-65.8677 54.7668-65.8677C64.1912-65.8344 72.4104-61.7302 78.0635-55.0113C80.0362-52.8631 82.8168-52.2018 85.0915-53.9614C87.1754-55.5791 87.4618-58.564 85.3271-61.0738C78.3577-69.7103 66.6081-75.4656 54.7668-75.4656ZM54.7668 4.98887C73.9761 4.98887 90.2446-8.79844 94.1219-26.9225L99.3442-26.9225C102.762-26.9225 103.605-29.6742 101.774-32.1577L91.7632-45.7689C90.3472-47.6267 88.0968-47.6267 86.7141-45.7689L76.7184-32.1244C74.9362-29.6897 75.7641-26.9225 79.133-26.9225L84.271-26.9225C80.7-14.0112 68.9275-4.57578 54.7668-4.57578C45.3424-4.60908 37.1231-8.74658 31.4701-15.4654C29.5307-17.6137 26.7168-18.275 24.4754-16.5153C22.3582-14.8977 22.1051-11.9128 24.2065-9.40293C31.1759-0.766504 42.9255 4.98887 54.7668 4.98887Z"/>
  </g>
  <g id="Medium-S" transform="matrix(1 0 0 1 1692.24 696)">
   <path d="M52.9102-57.6738C50.874-57.6738 49.2148-56.0146 49.2148-53.9873L49.2148-33.0244C49.2148-32.1016 49.5342-31.1699 50.2354-30.2246L59.2627-18.3555C60.7891-16.3232 62.9492-16.0039 64.8262-17.2949C66.5342-18.5059 66.6895-20.7812 65.3271-22.5918L52.5791-39.8252L56.5967-27.501L56.5967-53.9873C56.5967-56.0146 54.9375-57.6738 52.9102-57.6738ZM54.3086-75.1152C35.2139-75.1152 19.0127-61.3145 15.29-43.2578L10.0479-43.2578C6.77832-43.2578 6.00195-40.7891 7.75879-38.3662L17.1973-25.3008C18.5732-23.4229 20.7559-23.4229 22.0918-25.3008L31.5215-38.4062C33.2295-40.7803 32.4219-43.2578 29.2012-43.2578L24.1504-43.2578C27.6338-56.6475 39.7432-66.4404 54.3086-66.4404C64.1777-66.4004 72.835-61.9795 78.5352-54.8496C80.2451-52.8496 82.709-52.2422 84.8018-53.7256C86.7441-55.1074 87.1182-57.8564 85.2529-60.1035C78.1084-69.124 66.5205-75.1152 54.3086-75.1152ZM54.3086 4.625C73.4033 4.625 89.6045-9.17578 93.3672-27.2324L98.5693-27.2324C101.839-27.2324 102.655-29.7012 100.898-32.124L91.46-45.1895C90.0439-47.0674 87.9014-47.0674 86.5254-45.1895L77.0957-32.084C75.3877-29.71 76.1953-27.2324 79.416-27.2324L84.5068-27.2324C81.0234-13.8428 68.9141-4.00977 54.3086-4.00977C44.4395-4.0498 35.7822-8.51074 30.082-15.6406C28.4121-17.6406 25.9082-18.248 23.8555-16.7646C21.873-15.3828 21.5391-12.6338 23.3643-10.3867C30.5088-1.36621 42.0967 4.625 54.3086 4.625Z"/>
  </g>
  <g id="Regular-S" transform="matrix(1 0 0 1 1396.13 696)">
   <path d="M52.2949-58.0078C50.3906-58.0078 48.8281-56.4453 48.8281-54.541L48.8281-32.9102C48.8281-32.0312 49.1211-31.1523 49.8047-30.2246L59.1309-17.9688C60.5957-16.0156 62.5977-15.7227 64.4043-16.9434C66.0156-18.0664 66.1621-20.166 64.8438-21.9238L51.709-39.7461L55.7617-27.2461L55.7617-54.541C55.7617-56.4453 54.1992-58.0078 52.2949-58.0078ZM53.7109-74.6582C34.7656-74.6582 18.6523-60.8398 15.0879-42.8711L9.86328-42.8711C6.78711-42.8711 6.05469-40.7715 7.71484-38.4277L16.4062-26.0742C17.7734-24.1699 19.8242-24.1699 21.1426-26.0742L29.834-38.4766C31.4453-40.7715 30.6641-42.8711 27.6367-42.8711L22.6562-42.8711C26.0254-56.8848 38.5742-67.1875 53.7109-67.1875C64.1602-67.1387 73.3887-62.3047 79.1504-54.6387C80.5176-52.832 82.5684-52.2949 84.4238-53.418C86.1816-54.4922 86.6699-56.9336 85.1562-58.8379C77.7832-68.3594 66.4062-74.6582 53.7109-74.6582ZM53.7109 4.15039C72.6562 4.15039 88.7695-9.66797 92.3828-27.6367L97.5586-27.6367C100.635-27.6367 101.416-29.7363 99.7559-32.0801L91.0645-44.4336C89.6484-46.3379 87.6465-46.3379 86.2793-44.4336L77.5879-32.0312C75.9766-29.7363 76.7578-27.6367 79.7852-27.6367L84.8145-27.6367C81.4453-13.623 68.8965-3.27148 53.7109-3.27148C43.2617-3.32031 34.0332-8.20312 28.2715-15.8691C26.9531-17.6758 24.8535-18.2129 23.0469-17.0898C21.2402-16.0156 20.8008-13.5742 22.2656-11.6699C29.6387-2.14844 41.0156 4.15039 53.7109 4.15039Z"/>
  </g>
  <g id="Light-S" transform="matrix(1 0 0 1 1100.23 696)">
   <path d="M51.4321-57.4175C49.9517-57.4175 48.7373-56.2334 48.7373-54.7529L48.7373-33.561C48.7373-32.7427 49-32.0303 49.5625-31.2842L59.1157-18.6953C60.2324-17.2266 61.7954-17.0244 63.1631-17.9575C64.396-18.8535 64.5122-20.4233 63.5117-21.7725L51.1035-38.4141L54.0967-29.2139L54.0967-54.7529C54.0967-56.2334 52.8975-57.4175 51.4321-57.4175ZM52.8936-73.9316C34.1753-73.9316 18.3193-60.2647 14.9214-42.4624L9.31836-42.4624C6.81738-42.4624 6.17578-40.7563 7.56348-38.791L16.0127-26.7554C17.168-25.1387 18.8403-25.1387 19.9619-26.7554L28.396-38.8096C29.7651-40.7563 29.0747-42.4624 26.6226-42.4624L20.7339-42.4624C23.9819-57.2178 37.0908-68.2017 52.8936-68.2017C64.1602-68.168 74.0093-62.5771 79.9526-54.0181C80.9717-52.6353 82.5532-52.2192 83.9849-53.0547C85.3189-53.8716 85.7163-55.7227 84.5811-57.2031C77.3442-67.1484 65.9219-73.9316 52.8936-73.9316ZM52.8936 3.42383C71.627 3.42383 87.4829-10.2432 90.8994-28.0454L96.4839-28.0454C98.9697-28.0454 99.6602-29.7515 98.2573-31.7168L89.8233-43.7524C88.6343-45.3691 86.9956-45.3691 85.8403-43.7524L77.3911-31.6982C76.0371-29.7515 76.7124-28.0454 79.1797-28.0454L85.102-28.0454C81.854-13.29 68.73-2.27247 52.8936-2.27247C41.627-2.30616 31.7778-7.93067 25.8496-16.4897C24.8491-17.8726 23.2339-18.2886 21.8511-17.4531C20.4683-16.6362 20.1045-14.7851 21.2212-13.3047C28.458-3.35937 39.8804 3.42383 52.8936 3.42383Z"/>
  </g>
  <g id="Thin-S" transform="matrix(1 0 0 1 804.592 696)">
   <path d="M50.291-56.6367C49.3711-56.6367 48.6172-55.9531 48.6172-55.0332L48.6172-34.4219C48.6172-33.6836 48.8398-33.1914 49.2422-32.6855L59.0957-19.6562C59.752-18.8281 60.7344-18.7461 61.5215-19.2988C62.2539-19.8945 62.3301-20.7637 61.75-21.5723L50.3027-36.6524L51.8946-31.8164L51.8946-55.0332C51.8946-55.9531 51.1758-56.6367 50.291-56.6367ZM51.8125-72.9707C33.3945-72.9707 17.8789-59.5039 14.7012-41.9219L8.59767-41.9219C6.85742-41.9219 6.33594-40.7363 7.36328-39.2715L15.4922-27.6562C16.3672-26.4199 17.5391-26.4199 18.4004-27.6562L26.4942-39.25C27.543-40.7363 26.9727-41.9219 25.2813-41.9219L18.1914-41.9219C21.2793-57.6582 35.1289-69.543 51.8125-69.543C64.1602-69.5293 74.8301-62.9375 81.0137-53.1973C81.5723-52.375 82.5332-52.1191 83.4043-52.5742C84.1778-53.0508 84.4551-54.1211 83.8203-55.041C76.7637-65.5469 65.2813-72.9707 51.8125-72.9707ZM51.8125 2.4629C70.2656 2.4629 85.7813-11.0039 88.9375-28.5859L95.0625-28.5859C96.7676-28.5859 97.3379-29.7715 96.2754-31.2363L88.1817-42.8516C87.293-44.0879 86.1348-44.0879 85.2598-42.8516L77.1309-31.2578C76.1172-29.7715 76.6523-28.5859 78.3789-28.5859L85.4824-28.5859C82.3945-12.8496 68.5098-0.95119 51.8125-0.95119C39.4649-0.964862 28.795-7.57032 22.6465-17.3105C22.0664-18.1328 21.0918-18.3887 20.2696-17.9336C19.4473-17.457 19.1836-16.3867 19.8399-15.4668C26.8965-4.96092 38.3789 2.4629 51.8125 2.4629Z"/>
  </g>
  <g id="Ultralight-S" transform="matrix(1 0 0 1 508.43 696)">
   <path d="M49.7066-56.2368C49.0737-56.2368 48.5557-55.8096 48.5557-55.1768L48.5557-34.8628C48.5557-34.1655 48.7578-33.7861 49.0781-33.4033L59.0854-20.1484C59.5059-19.6484 60.1909-19.6279 60.6807-19.9858C61.1568-20.4277 61.2124-20.938 60.8477-21.4697L49.8926-35.75L50.7666-33.1494L50.7666-55.1768C50.7666-55.8096 50.294-56.2368 49.7066-56.2368ZM51.2588-72.4785C32.9946-72.4785 17.6533-59.1143 14.5884-41.645L8.22853-41.645C6.87793-41.645 6.41797-40.7261 7.26075-39.5176L15.2256-28.1177C15.957-27.0761 16.8726-27.0761 17.6006-28.1177L25.5201-39.4756C26.4048-40.7261 25.896-41.645 24.5943-41.645L16.8892-41.645C19.8951-57.8838 34.1241-70.23 51.2588-70.23C64.1602-70.2265 75.2505-63.1221 81.5571-52.7769C81.8799-52.2417 82.5229-52.0679 83.1069-52.3281C83.5933-52.6304 83.8091-53.3008 83.4307-53.9336C76.4663-64.7266 64.9531-72.4785 51.2588-72.4785ZM51.2588 1.97072C69.5684 1.97072 84.9097-11.3935 87.9327-28.8628L94.3345-28.8628C95.6397-28.8628 96.1485-29.7817 95.2603-30.9902L87.3408-42.3902C86.606-43.4317 85.6939-43.4317 84.9624-42.3902L76.9976-31.0322C76.1582-29.7817 76.6216-28.8628 77.9688-28.8628L85.6772-28.8628C82.6714-12.624 68.397-0.274438 51.2588-0.274438C38.3575-0.277856 27.2671-7.38575 21.0059-17.7309C20.6412-18.2661 19.9947-18.4399 19.4595-18.1797C18.9243-17.8774 18.7119-17.207 19.1323-16.5742C26.0967-5.78122 37.6099 1.97072 51.2588 1.97072Z"/>
  </g>
 </g>
</svg>
